<svg xmlns="http://www.w3.org/2000/svg">
<defs>
<symbol id="icon-logo" viewBox="0 0 26 32">
<path fill="#fff" style="fill: var(--color1, #fff)" d="M8.664 23.864c-0.503-0.585-1.024-1.143-1.582-1.741-3.108-3.323-7.299-7.811-7.074-13.145 0.175-4.178 3.288-6.92 7.318-8.173 3.568-1.073 7.378-1.073 10.947 0 4.030 1.252 7.143 3.995 7.318 8.177 0.221 5.334-3.97 9.818-7.074 13.145-0.563 0.599-1.079 1.152-1.586 1.741l-0.429 0.498v0.041h-7.378l-0.461-0.53-0-0.014zM13.815 3.113v17.597c3.228-6.728 6.599-13.954 2.545-17.236v-0c-0.837-0.191-1.688-0.311-2.545-0.361v0zM11.942 20.829v-17.725c-0.861 0.042-1.717 0.156-2.559 0.338-4.15 3.282-0.715 10.6 2.559 17.369v0.019zM19.896 4.914c1.416 3.958-0.77 9.402-3.292 14.745 2.684-2.88 6.054-6.664 5.893-10.558-0.074-1.792-1.084-3.199-2.601-4.187v0zM9.203 19.882c-2.587-5.453-4.865-11.029-3.366-15.056-1.586 1.001-2.656 2.427-2.735 4.274-0.166 3.999 3.385 7.875 6.101 10.782v0z"></path>
<path fill="#fff" style="fill: var(--color1, #fff)" d="M16.499 25.089l-0.355 2.857v2.381c0 0.914-0.89 1.673-1.978 1.673h-2.697c-1.088 0-1.978-0.754-1.978-1.673v-2.285l-0.364-2.939h1.513l0.249 1.993h3.85l0.249-1.993 1.512-0.014z"></path>
</symbol>
<symbol id="icon-Nav-button" viewBox="0 0 32 32">
<path fill="#fff" style="fill: var(--color1, #fff)" d="M32 16c0 8.837-7.163 16-16 16s-16-7.163-16-16c0-8.837 7.163-16 16-16s16 7.163 16 16z"></path>
<path fill="none" stroke="#000" style="stroke: var(--color2, #000)" stroke-linejoin="miter" stroke-linecap="butt" stroke-miterlimit="4" stroke-width="0.9143" d="M9.143 10.971h13.714"></path>
<path fill="none" stroke="#000" style="stroke: var(--color2, #000)" stroke-linejoin="miter" stroke-linecap="butt" stroke-miterlimit="4" stroke-width="0.9143" d="M9.143 15.543h13.714"></path>
<path fill="none" stroke="#000" style="stroke: var(--color2, #000)" stroke-linejoin="miter" stroke-linecap="butt" stroke-miterlimit="4" stroke-width="0.9143" d="M9.143 20.114h13.714"></path>
</symbol>
<symbol id="icon-close" viewBox="0 0 32 32">
<path stroke-linejoin="round" stroke-linecap="round" stroke-miterlimit="4" stroke-width="2.5" d="M24 8l-16 16"></path>
<path stroke-linejoin="round" stroke-linecap="round" stroke-miterlimit="4" stroke-width="2.5" d="M8 8l16 16"></path>
</symbol>
<symbol id="icon-map" viewBox="0 0 32 32">
<path d="M31.093 28.963l-2.203-6.563h-2.417l1.342 6.4h-23.631l1.342-6.4h-2.417l-2.204 6.563c-0.559 1.67 0.432 3.037 2.204 3.037h25.78c1.772 0 2.763-1.366 2.203-3.037zM24.057 8c0-4.418-3.606-8-8.056-8s-8.056 3.582-8.056 8c0 7.64 8.056 16 8.056 16s8.056-8.36 8.056-16zM11.65 8.096c0-2.386 1.946-4.318 4.35-4.318s4.35 1.933 4.35 4.318c0 2.387-1.948 4.32-4.35 4.32s-4.35-1.934-4.35-4.32z"></path>
</symbol>
<symbol id="icon-compas" viewBox="0 0 32 32">
<path d="M8.423 23.457c0 0 7.613-1.028 10.863-4.224s4.293-10.688 4.293-10.688-7.615 1.028-10.863 4.224c-3.248 3.196-4.293 10.688-4.293 10.688zM14.361 14.384c1.363-1.341 3.975-2.296 6.215-2.889-0.602 2.2-1.575 4.788-2.933 6.119-0.905 0.894-2.377 0.894-3.281 0-0.908-0.89-0.908-2.337 0-3.23zM16.001 0.258c-8.838 0-16.001 7.047-16.001 15.741 0 8.695 7.163 15.743 16.001 15.743 8.835 0 15.999-7.047 15.999-15.743s-7.165-15.741-15.999-15.741zM15.999 28.461c-6.995 0-12.666-5.578-12.666-12.462 0-6.882 5.67-12.462 12.666-12.462 6.995 0 12.668 5.578 12.668 12.462 0 6.882-5.673 12.462-12.668 12.462z"></path>
</symbol>
<symbol id="icon-direct" viewBox="0 0 32 32">
<path d="M31.678 8.33l-3.8-2.903c-0.216-0.148-0.518-0.279-0.834-0.376-0.317-0.097-0.645-0.155-0.907-0.155h-10.938l1.282 7.932h9.656c0.262 0 0.59-0.059 0.906-0.155s0.619-0.23 0.834-0.374l3.8-2.906c0.216-0.144 0.323-0.336 0.323-0.53s-0.107-0.385-0.322-0.531zM13.6 1.723h-1.6c-0.442 0-0.8 0.355-0.8 0.793v5.552h-5.338c-0.266 0-0.592 0.059-0.907 0.157-0.317 0.095-0.619 0.227-0.834 0.374l-3.8 2.903c-0.216 0.144-0.322 0.338-0.322 0.531s0.106 0.384 0.322 0.531l3.8 2.906c0.214 0.144 0.517 0.278 0.834 0.373s0.642 0.155 0.907 0.155h5.338v13.484c0 0.438 0.358 0.793 0.8 0.793h1.6c0.442 0 0.8-0.355 0.8-0.793v-26.968c0-0.438-0.358-0.793-0.8-0.793z"></path>
</symbol>
<symbol id="icon-Earth" viewBox="0 0 32 32">
<path d="M16.001 0.254c-8.825 0-16.001 7.064-16.001 15.746s7.176 15.746 16.001 15.746c8.821 0 15.999-7.064 15.999-15.746s-7.178-15.746-15.999-15.746zM29.647 16c0 3.072-1.060 5.905-2.826 8.168-0.5-0.384-1.032-1.422-0.532-2.498 0.505-1.082 0.637-3.589 0.52-4.565-0.11-0.974-0.625-3.321-2.023-3.344-1.397-0.020-2.355-0.474-3.185-2.104-1.722-3.392 3.232-4.043 1.51-5.92-0.482-0.528-2.971 2.168-3.336-1.425-0.023-0.258 0.225-0.643 0.56-1.043 5.406 1.788 9.313 6.818 9.313 12.731zM14.126 2.703c-0.327 0.627-1.188 0.881-1.712 1.352-1.14 1.015-1.63 0.874-2.243 1.849-0.618 0.974-2.611 2.377-2.611 3.082s1.007 1.535 1.51 1.374c0.503-0.164 1.832-0.154 2.612 0.115 0.782 0.272 6.523 0.545 4.693 5.321-0.58 1.519-3.122 1.263-3.798 3.777-0.102 0.369-0.453 1.945-0.475 2.46-0.042 0.797 0.573 3.802-0.208 3.802-0.785 0-2.896-2.688-2.896-3.175s-0.547-2.195-0.547-3.658c0-1.461-2.53-1.438-2.53-3.382 0-1.752 1.372-2.624 1.063-3.466-0.302-0.837-2.712-0.864-3.716-0.968 1.755-4.479 5.883-7.804 10.859-8.483zM11.708 28.744c0.82-0.426 0.903-0.978 1.647-1.005 0.85-0.038 1.542-0.326 2.5-0.535 0.85-0.182 2.372-1.032 3.71-1.14 1.13-0.090 3.358 0.057 3.958 1.13-2.158 1.412-4.746 2.236-7.523 2.236-1.498 0-2.941-0.244-4.291-0.686z"></path>
</symbol>
</defs>
</svg>
